HIERARCHY
ROOT Hips
{
	OFFSET 0.00000 0.00000 0.00000
	CHANNELS 6 Xposition Yposition Zposition Zrotation Yrotation Xrotation 
	JOINT LHipJoint
	{
		OFFSET 0 0 0
		CHANNELS 3 Zrotation Yrotation Xrotation
		JOINT LeftUpLeg
		{
			OFFSET 1.70593 -1.62653 0.87602
			CHANNELS 3 Zrotation Yrotation Xrotation
			JOINT LeftLeg
			{
				OFFSET 2.32330 -6.38322 0.00000
				CHANNELS 3 Zrotation Yrotation Xrotation
				JOINT LeftFoot
				{
					OFFSET 2.45016 -6.73177 0.00000
					CHANNELS 3 Zrotation Yrotation Xrotation
					JOINT LeftToeBase
					{
						OFFSET 0.13029 -0.35798 1.96980
						CHANNELS 3 Zrotation Yrotation Xrotation
						End Site
						{
							OFFSET 0.00000 -0.00000 1.01270
						}
					}
				}
			}
		}
	}
	JOINT RHipJoint
	{
		OFFSET 0 0 0
		CHANNELS 3 Zrotation Yrotation Xrotation
		JOINT RightUpLeg
		{
			OFFSET -1.80599 -1.62652 0.87602
			CHANNELS 3 Zrotation Yrotation Xrotation
			JOINT RightLeg
			{
				OFFSET -2.45375 -6.74162 0.00000
				CHANNELS 3 Zrotation Yrotation Xrotation
				JOINT RightFoot
				{
					OFFSET -2.45828 -6.75406 0.00000
					CHANNELS 3 Zrotation Yrotation Xrotation
					JOINT RightToeBase
					{
						OFFSET -0.13801 -0.37917 1.88456
						CHANNELS 3 Zrotation Yrotation Xrotation
						End Site
						{
							OFFSET -0.00000 -0.00000 0.97281
						}
					}
				}
			}
		}
	}
	JOINT LowerBack
	{
		OFFSET 0 0 0
		CHANNELS 3 Zrotation Yrotation Xrotation
		JOINT Spine
		{
			OFFSET 0.01003 2.00576 -0.14267
			CHANNELS 3 Zrotation Yrotation Xrotation
			JOINT Spine1
			{
				OFFSET 0.00908 2.01191 0.01660
				CHANNELS 3 Zrotation Yrotation Xrotation
				JOINT Neck
				{
					OFFSET 0 0 0
					CHANNELS 3 Zrotation Yrotation Xrotation
					JOINT Neck1
					{
						OFFSET -0.05849 1.60301 0.18934
						CHANNELS 3 Zrotation Yrotation Xrotation
						JOINT Head
						{
							OFFSET 0.01775 1.59435 -0.07960
							CHANNELS 3 Zrotation Yrotation Xrotation
							End Site
							{
								OFFSET 0.01210 1.70732 -0.05248
							}
						}
					}
				}
				JOINT LeftShoulder
				{
					OFFSET 0 0 0
					CHANNELS 3 Zrotation Yrotation Xrotation
					JOINT LeftArm
					{
						OFFSET 3.15315 1.26460 0.30667
						CHANNELS 3 Zrotation Yrotation Xrotation
						JOINT LeftForeArm
						{
							OFFSET 4.97694 -0.00000 -0.00000
							CHANNELS 3 Zrotation Yrotation Xrotation
							JOINT LeftHand
							{
								OFFSET 3.14391 -0.00000 -0.00000
								CHANNELS 3 Zrotation Yrotation Xrotation
								JOINT LeftFingerBase
								{
									OFFSET 0 0 0
									CHANNELS 3 Zrotation Yrotation Xrotation
									JOINT LeftHandIndex1
									{
										OFFSET 0.59358 -0.00000 -0.00000
										CHANNELS 3 Zrotation Yrotation Xrotation
										End Site
										{
											OFFSET 0.47856 -0.00000 -0.00000
										}
									}
								}
								JOINT LThumb
								{
									OFFSET 0 0 0
									CHANNELS 3 Zrotation Yrotation Xrotation
									End Site
									{
										OFFSET 0.48587 -0.00000 0.48587
									}
								}
							}
						}
					}
				}
				JOINT RightShoulder
				{
					OFFSET 0 0 0
					CHANNELS 3 Zrotation Yrotation Xrotation
					JOINT RightArm
					{
						OFFSET -3.25568 1.35581 0.18982
						CHANNELS 3 Zrotation Yrotation Xrotation
						JOINT RightForeArm
						{
							OFFSET -4.90473 -0.00000 0.00000
							CHANNELS 3 Zrotation Yrotation Xrotation
							JOINT RightHand
							{
								OFFSET -3.21621 0.00006 -0.00004
								CHANNELS 3 Zrotation Yrotation Xrotation
								JOINT RightFingerBase
								{
									OFFSET 0 0 0
									CHANNELS 3 Zrotation Yrotation Xrotation
									JOINT RightHandIndex1
									{
										OFFSET -0.62353 -0.00000 -0.00000
										CHANNELS 3 Zrotation Yrotation Xrotation
										End Site
										{
											OFFSET -0.50270 -0.00000 -0.00000
										}
									}
								}
								JOINT RThumb
								{
									OFFSET 0 0 0
									CHANNELS 3 Zrotation Yrotation Xrotation
									End Site
									{
										OFFSET -0.51038 -0.00000 0.51038
									}
								}
							}
						}
					}
				}
			}
		}
	}
}
MOTION
Frames: 4
Frame Time: .0083333
6.917600 15.384600 -40.957500 -2.916300 -3.271900 6.371900 0.000000 0.000000 0.000000 -14.590900 -3.246600 -37.356700 8.417600 16.418000 54.053300 0.451500 1.589600 -13.370200 0.710700 -5.387900 -15.018300 0.000000 0.000000 0.000000 27.874900 4.281300 -12.463900 -2.856300 -10.458700 30.475100 0.277300 22.064700 -13.379700 -0.050800 1.454700 -4.000900 5.378200 3.375100 -0.694000 1.694300 4.573000 -2.732600 -1.300000 2.191400 -2.148600 -1.095200 -1.128700 -6.449300 -1.971900 -1.167500 10.956100 -0.548700 -0.724300 4.806500 0.000000 0.000000 0.000000 -89.368300 13.556800 27.766000 9.641100 -16.176200 -1.373300 -0.000000 0.000000 -6.621100 21.170000 -7.056900 -2.724000 -7.125000 0.000000 -0.000000 -4.107100 22.424100 2.235400 0.000000 0.000000 0.000000 89.930600 5.438600 19.263200 -17.477700 27.483300 -4.305500 0.000000 -0.000000 -1.701500 -25.815000 -46.800000 19.424300 7.125000 -0.000000 -0.000000 32.199100 -78.147600 -25.323500
6.930300 15.360900 -40.739900 -3.182800 -3.699900 6.471000 0.000000 0.000000 0.000000 -14.308600 -3.062000 -37.980700 7.675600 15.875400 51.385800 0.559900 1.229900 -14.633000 0.408300 -4.101800 -11.363300 0.000000 0.000000 0.000000 28.105400 3.634100 -11.663200 -2.773700 -10.319300 30.017100 0.493500 22.680900 -12.116100 -0.001300 0.235700 -0.647500 5.738500 3.600700 -0.588500 1.519500 4.882000 -2.762900 -1.684300 2.334600 -2.177600 -0.587300 -1.141600 -6.625600 -2.127400 -1.220200 10.991100 -0.698400 -0.738100 4.851100 -0.000000 -0.000000 0.000000 -88.959900 14.680300 27.966200 9.706000 -16.278300 -1.391400 -0.000000 0.000000 -6.446900 21.762100 -4.678700 -1.865000 -7.125000 0.000000 -0.000000 -3.673100 24.943600 1.784900 -0.000000 -0.000000 0.000000 89.159000 7.445000 22.651400 -17.458400 27.458200 -4.296600 0.000000 -0.000000 -4.471100 -26.658100 -47.462300 20.300100 7.125000 -0.000000 -0.000000 33.562900 -78.973000 -26.968400
6.942000 15.337100 -40.522800 -3.507600 -4.363200 6.442900 0.000000 0.000000 0.000000 -13.955800 -2.739900 -38.163300 6.927000 15.270100 48.597600 0.621200 0.934300 -15.255600 0.754500 -5.547900 -15.478200 0.000000 0.000000 0.000000 28.319200 2.769400 -10.772100 -2.681400 -10.160500 29.498000 0.696000 23.696000 -11.367800 -0.000500 0.141100 -0.387600 6.004200 3.776100 -0.399600 1.569100 5.127800 -2.650900 -1.787700 2.454900 -2.133500 -0.080600 -1.229100 -6.700100 -2.963300 -1.292000 11.284200 -0.971800 -0.808600 4.458400 -0.000000 -0.000000 0.000000 -89.017600 15.701200 27.670300 9.663800 -16.211900 -1.379600 -0.000000 0.000000 -6.314000 22.184600 -5.531200 -2.250800 -7.125000 0.000000 -0.000000 -3.354800 24.010800 1.702200 -0.000000 -0.000000 0.000000 88.447700 9.749900 25.100600 -17.278300 27.223200 -4.213800 0.000000 -0.000000 -6.406900 -26.165000 -47.096400 19.792800 7.125000 -0.000000 -0.000000 32.810600 -78.506900 -26.049600
6.953000 15.336600 -40.302500 -3.681400 -4.848400 6.483200 0.000000 0.000000 0.000000 -13.654200 -2.745400 -38.360900 6.159500 14.581200 45.618700 0.621800 2.423600 -15.969500 2.864500 -10.472400 -30.520600 0.000000 0.000000 0.000000 28.326400 1.784200 -9.836400 -2.558000 -9.942600 28.791200 0.819400 24.529300 -11.175000 -0.011000 0.677900 -1.862800 6.152700 3.766900 -0.368900 1.694400 5.118400 -2.595100 -1.740700 2.450300 -2.093100 0.317000 -1.134000 -5.599200 -3.734600 -1.179800 9.417100 -1.367800 -0.744100 4.061900 0.000000 0.000000 0.000000 -89.533100 16.735700 25.675700 9.223900 -15.516600 -1.259400 -0.000000 0.000000 -5.103500 24.892200 -11.541900 -5.304300 -7.125000 0.000000 -0.000000 -1.580100 17.295400 1.039300 0.000000 0.000000 0.000000 88.202600 11.118000 26.180200 -18.032800 28.199100 -4.564700 0.000000 -0.000000 -6.987400 -24.146800 -44.248600 17.370400 7.125000 -0.000000 -0.000000 26.860000 -75.513600 -19.589500
